<svg xmlns="http://www.w3.org/2000/svg" viewBox="0 0 595.28 595.28"><defs><style>.cls-1{fill:none;}.cls-2{fill:#fff;}</style></defs><g id="Layer_2" data-name="Layer 2"><rect class="cls-1" width="595.28" height="595.28"/><path class="cls-2" d="M297.64,124.44a173.2,173.2,0,1,1-122.46,50.73,172,172,0,0,1,122.46-50.73m0-6.67A179.86,179.86,0,1,0,477.49,297.63,179.86,179.86,0,0,0,297.64,117.77Zm0,28.49a151.37,151.37,0,1,1-107,44.34,150.38,150.38,0,0,1,107-44.34m0-6.66a158,158,0,1,0,158,158,158,158,0,0,0-158-158ZM279.11,515l-10.37,21.14,10.37,26.29h-7.66l-7.24-18.91-2.31,4.34v14.57h-7.45V515h7.45v20.67L271.66,515Zm-55.3,32.32v3.86c0,7.32-3.86,11.25-11.31,11.25H200.78V515H212c7.73,0,11,3.59,11,10.91v1.69c0,4.88-1.49,8-4.82,9.56C222.25,538.66,223.81,542.26,223.81,547.27Zm-15.58-13h2.91c2.78,0,4.47-1.22,4.47-5v-2.64c0-3.39-1.15-4.88-3.79-4.88h-3.59Zm8.13,12.53c0-4.4-1.42-5.75-4.81-5.75h-3.32V555.6h4.27c2.5,0,3.86-1.15,3.86-4.67Zm22.09-32.38c-7.31,0-11,4.34-11,11.92v4h6.91v-4.47c0-3.39,1.49-4.67,3.86-4.67s3.86,1.28,3.86,4.67v8.6h-6.84v6.78h6.84v10.23c0,3.39-1.49,4.61-3.86,4.61s-3.86-1.22-3.86-4.61v-6.1h-7V551c0,7.58,3.8,11.92,11.11,11.92s11.11-4.34,11.11-11.92V526.33C249.56,518.75,245.77,514.41,238.45,514.41Zm145.78,0c-7.32,0-11.11,4.34-11.11,11.92v2.58h7v-3c0-3.39,1.49-4.67,3.87-4.67s3.86,1.15,3.86,5.42v2.64c0,3.79-1.7,5-4.47,5H380.5V541H383c3.39,0,4.88,1.62,4.88,6v3.72c0,4.2-1.49,5.35-3.86,5.35s-3.87-1.28-3.87-4.67v-4.4h-7V551c0,7.58,3.79,11.92,11.11,11.92s11.11-4.34,11.11-11.92v-3.73c0-4.81-1.49-8.33-5.22-10,3.59-1.49,5.22-4.68,5.22-9.76v-1.22C395.34,518.75,391.55,514.41,384.23,514.41Zm-86.61,6.5v5.29h5.76v36.18h7.45V515h-5C304.66,518.14,303.38,520.91,297.62,520.91ZM105,496.16c3.84-.87,7.75-1.78,11.7-2.73-2.57-2.38-5.13-4.77-7.61-7.26a266.81,266.81,0,1,1,377.1,0c-2.49,2.49-5,4.88-7.61,7.26,3.95.95,7.86,1.86,11.7,2.73a275.83,275.83,0,0,0,84-198.53C574.28,144.84,450.43,21,297.64,21S21,144.84,21,297.63A275.84,275.84,0,0,0,105,496.16Zm440,10.77s-84.56-13.74-128-32.52c0,0-14.28-5.39-35.24-5.39-23.26,0-54.75,6.63-84.14,34.58-29.39-28-60.89-34.57-84.14-34.58-21,0-35.24,5.39-35.24,5.39-43.39,18.78-127.95,32.52-127.95,32.52l31.56,60.68H50.31v6.66H545v-6.66H513.4Zm-122,29.92-1.48,6.5,86.78,19.75-2.35,4.51H89.38L87,563.1l86.78-19.75-1.48-6.5L83.86,557l-5.67-10.9L190,520.62l-1.48-6.5L75,540l-6.25-12,136.35-30.88-1.47-6.5L65.58,521.85,60.43,512C83.57,507.84,145,496,180.72,480.61c1.38-.49,14.4-4.92,32.78-4.92,20.58,0,51.09,5.68,79.54,32.74l4.6,4.37,4.59-4.37c28.45-27.06,59-32.74,79.55-32.74,18.41,0,31.45,4.45,32.78,4.92C450.28,496,511.71,507.84,534.84,512l-5.15,9.9L391.63,490.58l-1.47,6.5L526.51,528l-6.24,12L406.74,514.12l-1.48,6.5,111.83,25.46L511.42,557Zm-81.21-10.52v24.26c0,8-3.66,12.33-11.38,12.33-7.32,0-11.11-4.34-11.11-11.92v-1.22h7.05v1.69c0,3.39,1.49,4.67,3.86,4.67,2.64,0,4.13-1.28,4.13-5.82v-8.67a7.09,7.09,0,0,1-6.91,4.2c-5.49,0-8.27-3.87-8.27-10.84v-8.68c0-7.58,4-11.92,11.32-11.92S341.73,518.75,341.73,526.33Zm-7.45-.47c0-3.39-1.49-4.61-3.86-4.61s-3.86,1.22-3.86,4.61v8.54c0,3.38,1.49,4.67,3.86,4.67s3.86-1.29,3.86-4.67Zm26,3.73a7.11,7.11,0,0,0-6.5,3.45l.61-11.31h12.94V515H347.7l-1.35,27.51h7V541c0-3.39,1.49-4.68,3.87-4.68s3.86,1.29,3.86,4.68v10.43c0,3.39-1.49,4.61-3.86,4.61s-3.87-1.22-3.87-4.61v-4.4h-7V551c0,7.58,3.79,11.92,11.11,11.92s11.11-4.34,11.11-11.92V540.43C368.57,533.45,365.79,529.59,360.3,529.59Z"/><path class="cls-2" d="M148.74,456.52l5.74-1.57,12.11-12.51,4.15,4-36.07,37.28-4.15-4,17.41-18-27.32,8.42-4.21-4.07,25.87-7.87,9.88-29.73,4.26,4.12ZM118,448.87c-6.32,4.79-12.76,4.75-17.56-1.56s-3.14-12.6,3.18-17.39L125,413.7c6.26-4.75,12.76-4.76,17.6,1.61s3,12.58-3.22,17.33Zm18.15-20.95c3.78-2.87,4.75-6.12,2.24-9.42s-5.9-3.25-9.68-.38L106.85,434.7c-3.71,2.83-4.79,6.06-2.24,9.43s6,3.19,9.68.37ZM122.76,384.6l2.55,4.94L92.56,416.09l36.75-18.94,2.31,4.48L85.51,425.39l-3.7-7.18,32.92-26.55L74.14,403.33l-3.7-7.18,46.11-23.77,2.51,4.87L82,396.37Zm-54.4-9.78,44.56-13.69,1.7,5.52L65,381.89l-7.14-23.23,49.59-15.24,1.69,5.53L64.62,362.64ZM73.49,331c-1.19-8.14,2.5-12.58,10.64-13.77l6.16-.9c7.77-1.14,13,1.68,14.22,9.68l1.65,11.21-51.33,7.52L54,339l20.24-3Zm25.82-4.23c-.61-4.18-3.21-5.53-7.9-4.84l-6.82,1c-5,.73-6.59,3.06-6,7.32l.74,5.06,20.75-3ZM63.9,270.84l26.81.91c7.85.27,12.9,4.37,12.63,12.3s-5.59,11.74-13.44,11.48l-10.81-.37-.26,7.48,23.33.79-.2,5.78-51.84-1.77.2-5.78,23.33.8.26-7.48-10.82-.37c-7.92-.27-12.9-4.37-12.63-12.37S56,270.57,63.9,270.84Zm-.91,18,27.4.94c4.67.16,7.55-1.67,7.69-5.89s-2.6-6.25-7.27-6.41l-27.4-.93c-4.74-.16-7.55,1.74-7.69,5.89S58.25,288.66,63,288.82Zm43.33-30-45.55-9.89-2,9.34-5.14-1.12,5.28-24.33L64,234l-2,9.34,45.54,9.89Zm-15.89-47,4.86,1.81-4.42,11.87L108.16,232l5.43-14.58,4.93,1.84-7.45,20-48.61-18.1,7.45-20L74.84,203l-5.43,14.58L86,223.73Zm-9.61-32.7c3.89-7.16,9.79-7.92,16.69-4.16l5.47,3c7.22,3.94,9.16,9.38,5.22,16.6l-2.44,4.49,18,9.78L121,213.92,75.4,189.12Zm22.83,12.93c2-3.77,1.28-6.55-3.08-8.93l-6-3.29c-4.17-2.27-7.06-1.91-9.08,1.81l-2.66,4.88,18.42,10Zm15.88-21.23,18.6,14.1-3.49,4.61L93.29,158.24l3.49-4.6,18.61,14.09,7.7-10.16-18.61-14.09,3.49-4.61,41.35,31.32-3.49,4.61-18.61-14.1ZM139.8,135c6-5.58,11.8-5,17.37,1l4.22,4.58c5.33,5.77,6,11.72,0,17.2l-8.34,7.68-35.16-38.14,4.25-3.91,13.86,15Zm2.76-30.36,35.16,38.14-4.2,3.87-35.16-38.14Zm15.3,49.29c3.11-2.86,2.75-5.76-.46-9.25l-4.67-5.07c-3.42-3.7-6.25-3.71-9.41-.8l-3.76,3.47,14.22,15.42Zm24.81-48.79,2.82,4.35-10.63,6.9,10,15.48L198,123.35l2.86,4.42-17.91,11.61L154.69,95.86,172.6,84.24l2.86,4.42L162.4,97.13,172,112Zm42.22-30.8,1.67,4.37-5.12,2L219.67,76c-1.67-4.36-4.41-6.33-8.35-4.82s-4.67,4.8-3,9.16l9.8,25.61c1.66,4.36,4.47,6.3,8.35,4.82s4.66-4.81,3-9.17l-2.4-6.29,5.12-2,2.3,6c2.81,7.33,1.2,13.5-6.27,16.36s-12.72-.68-15.53-8l-9.59-25c-2.8-7.34-1.2-13.51,6.21-16.34S222.09,67,224.89,74.29Zm27.78,8.83-2.41,25-5.87,1.26-10.95-50.7,5-1.08,8.16,37.81,1.47-15,3-25.58,6.3-1.36,11,50.7-5.07,1.09L254.51,65ZM295,62.8l.28,4.66-5.47.33-.3-5c-.29-4.66-2.31-7.36-6.53-7.11s-5.89,3.19-5.61,7.84L279,90.94c.28,4.66,2.38,7.35,6.52,7.1s5.9-3.18,5.61-7.84l-.41-6.73,5.48-.33.39,6.43c.48,7.84-2.91,13.25-10.9,13.73S273.81,98.83,273.33,91L271.7,64.22c-.48-7.84,2.9-13.25,10.82-13.73S294.52,55,295,62.8Zm16.06,40.05,3.83-46.45-9.53-.78.44-5.25,24.81,2.05-.43,5.24-9.53-.79-3.82,46.46Zm44.48-21.93L354.39,86,342,83.16l-4.1,18,15.17,3.46-1.17,5.13L331.13,105l11.53-50.58,20.8,4.74-1.17,5.13-15.17-3.45L343.19,78.1Zm19.51,37.32-5.14-2.13L377.8,74.7,362,112.89,357.29,111l19.89-47.9,7.46,3.1-8,41.52,23.48-35.1,7.46,3.1-19.89,47.9-5.07-2.1,16-38.53Zm44.39-11.89c6.82,4.6,7.61,10.32,3,17.14L419,128.65c-4.39,6.51-10,8.52-16.73,4l-9.4-6.34,29-43,4.79,3.23-11.43,17Zm-14.26,21.94c3.5,2.36,6.24,1.34,8.89-2.59l3.85-5.71c2.82-4.18,2.18-6.94-1.39-9.34l-4.24-2.86-11.72,17.39ZM449.61,102l-29,43-4.73-3.19,29-43Zm11.88,50L438.6,162.38l-4-4.46,38.53-34.73,3.42,3.8-28.73,25.9,13.7-6.16,23.67-10.16,4.31,4.79L451,176.09l-3.47-3.86,30.66-27.63Zm24.61,36.33-5.94-.15L465,196.73l-2.83-5,45.25-25.36,2.82,5-21.85,12.25,28.59-.23,2.86,5.11-27,.12-18,25.63-2.89-5.17Zm27.29,16.19c7.43-2.77,13.59-.88,16.36,6.55s-.62,13-8,15.74l-25.13,9.38c-7.36,2.74-13.59.88-16.39-6.62s.72-12.92,8.08-15.67ZM490,219.38c-4.45,1.66-6.32,4.49-4.87,8.38s4.72,4.8,9.16,3.14L520,221.32c4.38-1.63,6.34-4.42,4.86-8.38s-4.78-4.77-9.16-3.14Zm.27,45.33-1-5.46,39-15.94-40.66,7.49-.92-5,51-9.4,1.46,7.94L500,260.28l42.23.58,1.46,7.95-51,9.4-1-5.39,41-7.57Zm49.24,25-46.61.3,0-5.78,51.88-.33.15,24.3L493,308.5l0-5.78,46.61-.3ZM537,333l-33.13-6.39c-8.08-1.57-12.35-4.49-11.19-12.33l.15-1,5.2.81c-.75,4.76,1.54,5.94,6.42,6.86L543,328.42l-3.27,20.87-51.24-8,.89-5.71,46.05,7.22Zm-28.34,41-4.94-1.59,3.88-12.07L490,354.67l-4.76,14.82-5-1.61,6.53-20.32,49.39,15.86-6.53,20.32-5-1.61,4.76-14.81-16.86-5.42Zm-14.22,17.21-3.24-5-15.6-7.73,2.57-5.18,46.48,23-2.57,5.18-22.44-11.12,16.32,23.47-2.6,5.24L498,396.84l-31.31-.38,2.63-5.32Zm-11.34,50.7-3.82-2.69,3.15-4.48,4.06,2.85c3.83,2.68,7.19,2.78,9.62-.68s1.19-6.59-2.64-9.27L471,411.86c-3.82-2.68-7.23-2.72-9.61.68s-1.19,6.59,2.64,9.27l5.52,3.87-3.15,4.49-5.28-3.7c-6.43-4.51-8.55-10.52-3.95-17.07s10.92-6.55,17.35-2l22,15.4c6.43,4.52,8.55,10.53,4,17S489.51,446.39,483.08,441.88Zm-22.36,42.2L424,447.43l4-4L464.75,480Zm1.5-30.44c-5.81,5.82-11.58,5.51-17.4-.3l-4.4-4.4c-5.56-5.55-6.45-11.47-.75-17.19l8-8,36.71,36.65-4.09,4.09L465.83,450ZM443.4,435.47c-3,3-2.51,5.87.84,9.22l4.88,4.87c3.56,3.56,6.39,3.46,9.43.41l3.61-3.61-14.84-14.82ZM295,314.6l14.4-8.34-14.34-8.54a2.22,2.22,0,0,1-1.19-2.11,3.5,3.5,0,0,1,.86-2.28,2.58,2.58,0,0,1,1.84-1,2.73,2.73,0,0,1,1.25.37c.47.22.95.47,1.46.76l17.58,10.34a2.39,2.39,0,0,1,1,1.08,3.16,3.16,0,0,1,.32,1.4,3.3,3.3,0,0,1-.32,1.46,2.43,2.43,0,0,1-1,1l-17.58,10.12a5.51,5.51,0,0,1-2.49.92,2.83,2.83,0,0,1-2.06-1,3.42,3.42,0,0,1-.92-2.22A2.15,2.15,0,0,1,295,314.6ZM224.78,266V297.5a3,3,0,0,0,6,0V267.31h66.67a10.17,10.17,0,0,1-1.84-6H229.45A4.68,4.68,0,0,0,224.78,266Zm174.7,124.7c0,.06,0,.12,0,.18v7.56a6.85,6.85,0,0,1-6.85,6.84H203.07a6.85,6.85,0,0,1-6.84-6.84V390.9a1.09,1.09,0,0,1,0-.18v-.09c0-.12,0-.24,0-.35v0c0-.1,0-.21.09-.31l0-.08.11-.26s0,0,0,0l15.92-31.41V254.81a5.77,5.77,0,0,1,5.77-5.76h83.49l-4,5.95H218.43V355.88H377.29V317c.32,0,.63.09,1,.09a8.35,8.35,0,0,0,4.65-1.4l.34-.23v42.72l15.93,31.41s0,0,0,0,.08.18.12.27l0,.07c0,.1.06.21.08.31v0a2.11,2.11,0,0,1,.05.35A.28.28,0,0,1,399.48,390.72Zm-195.43-2.79h65.42L272.75,376a5.63,5.63,0,0,1,5.41-4.12h39.4A5.63,5.63,0,0,1,323,376l3.29,11.91h65.41l-13.22-26.09H217.28Zm113.24-10.07H278.42l-2.77,10.07h44.42Zm76.24,16H202.18v4.58a.89.89,0,0,0,.89.89H392.64a.89.89,0,0,0,.89-.89Zm-108.2-117a3.12,3.12,0,0,0-1,1.19l-22,45a2.92,2.92,0,0,0-.32,1.29,2.35,2.35,0,0,0,.92,1.9,2.9,2.9,0,0,0,1.94.81,2.25,2.25,0,0,0,1.36-.43,3,3,0,0,0,1-1.19l21.92-45a3,3,0,0,0,.32-1.3,2.35,2.35,0,0,0-.92-1.89,2.7,2.7,0,0,0-1.89-.82A2.48,2.48,0,0,0,285.33,276.89Zm-60.55,68a4.68,4.68,0,0,0,4.67,4.67H366.27a4.68,4.68,0,0,0,4.67-4.67V313.23L369,311.31a8.28,8.28,0,0,1-2.32-4.61,3,3,0,0,0-1.72,2.68v34.19H230.74V313.38a3,3,0,1,0-6,0Zm32.88-49.31a3.09,3.09,0,0,0-1-2.16,2.62,2.62,0,0,0-2-1.08,5.35,5.35,0,0,0-2.49.92l-17.58,10.11a2.49,2.49,0,0,0-1,1,3.3,3.3,0,0,0-.32,1.46,3.52,3.52,0,0,0,.32,1.46,2.43,2.43,0,0,0,1,1l17.58,10.33c.5.29,1,.56,1.46.81a3,3,0,0,0,1.24.33,2.39,2.39,0,0,0,1.79-1,3.33,3.33,0,0,0,.92-2.27,2.23,2.23,0,0,0-1.19-2.11l-14.34-8.55,14.39-8.33A2.16,2.16,0,0,0,257.66,295.55ZM365.19,263.7a2.45,2.45,0,0,0-3.27-1.16,39.42,39.42,0,0,1-6.22,2.32,2.46,2.46,0,0,0-1.75,1.89l-2.6,13a2.77,2.77,0,0,1-2.71,2.22h-7.09a2.77,2.77,0,0,1-2.71-2.22l-2.6-13a2.46,2.46,0,0,0-1.75-1.89,38.55,38.55,0,0,1-8.63-3.58,2.48,2.48,0,0,0-2.57.1l-11,7.36a2.77,2.77,0,0,1-3.48-.35l-5-5a2.77,2.77,0,0,1-.34-3.48l7.36-11a2.45,2.45,0,0,0,.09-2.57,39.58,39.58,0,0,1-3.58-8.64,2.45,2.45,0,0,0-1.88-1.75l-13-2.6a2.77,2.77,0,0,1-2.22-2.7v-7.1a2.77,2.77,0,0,1,2.22-2.7l13-2.6a2.47,2.47,0,0,0,1.88-1.75,39.58,39.58,0,0,1,3.58-8.64,2.45,2.45,0,0,0-.09-2.57l-7.36-11a2.75,2.75,0,0,1,.34-3.47l5-5a2.77,2.77,0,0,1,3.48-.35l11,7.36a2.48,2.48,0,0,0,2.57.1,39,39,0,0,1,8.63-3.58,2.45,2.45,0,0,0,1.75-1.89l2.6-13a2.77,2.77,0,0,1,2.71-2.22h7.09a2.77,2.77,0,0,1,2.71,2.22l2.6,13a2.46,2.46,0,0,0,1.75,1.89,39,39,0,0,1,8.63,3.58,2.48,2.48,0,0,0,2.57-.1l11-7.36a2.77,2.77,0,0,1,3.48.35l5,5a2.74,2.74,0,0,1,.34,3.47l-7.35,11a2.43,2.43,0,0,0-.1,2.57,39.09,39.09,0,0,1,3.58,8.64,2.46,2.46,0,0,0,1.88,1.75l13,2.6a2.77,2.77,0,0,1,2.22,2.7v7.1a2.76,2.76,0,0,1-2.22,2.7l-13,2.6a2.48,2.48,0,0,0-1.88,1.75,38.77,38.77,0,0,1-2.4,6.37,2.46,2.46,0,0,0,4.43,2.13,43.22,43.22,0,0,0,2.27-5.71l11.55-2.31a7.7,7.7,0,0,0,6.17-7.53v-7.1a7.69,7.69,0,0,0-6.17-7.52l-11.55-2.32a44.46,44.46,0,0,0-2.87-6.92l6.54-9.81a7.7,7.7,0,0,0-1-9.68l-5-5a7.7,7.7,0,0,0-9.69-1l-9.8,6.54a44.17,44.17,0,0,0-6.93-2.87l-2.31-11.56a7.71,7.71,0,0,0-7.53-6.17h-7.09a7.71,7.71,0,0,0-7.53,6.17l-2.31,11.56a44.17,44.17,0,0,0-6.93,2.87l-9.8-6.54a7.7,7.7,0,0,0-9.69,1l-5,5a7.69,7.69,0,0,0-.95,9.68l6.53,9.81a44.17,44.17,0,0,0-2.87,6.93L291.43,216a7.69,7.69,0,0,0-6.17,7.52v7.1a7.7,7.7,0,0,0,6.17,7.53L303,240.44a44.46,44.46,0,0,0,2.87,6.92l-6.53,9.81a7.69,7.69,0,0,0,.95,9.68l5,5a7.7,7.7,0,0,0,9.69,1l9.8-6.54a43.23,43.23,0,0,0,6.93,2.87L334,280.72a7.71,7.71,0,0,0,7.53,6.17h7.09a7.71,7.71,0,0,0,7.53-6.17l2.31-11.56A43.48,43.48,0,0,0,364,267,2.46,2.46,0,0,0,365.19,263.7Zm1.21-23a2.46,2.46,0,0,0,3.31-1.07,27.65,27.65,0,0,0-24.62-40.24,27.49,27.49,0,0,0-19.29,7.85,2.46,2.46,0,0,0,3.43,3.52,22.73,22.73,0,0,1,36.1,26.63A2.46,2.46,0,0,0,366.4,240.72Zm-44.32-24.19a2.46,2.46,0,0,0-3.13,1.52,27.66,27.66,0,0,0,26.15,36.64,27.41,27.41,0,0,0,16.19-5.24,2.46,2.46,0,0,0-2.88-4,22.73,22.73,0,0,1-36-18.42,22.93,22.93,0,0,1,1.23-7.4A2.46,2.46,0,0,0,322.08,216.53Zm114.19,58.16-7.11-1.43a32.38,32.38,0,0,0-1.56-3.76l4-6a5.9,5.9,0,0,0-.74-7.43l-3.29-3.3a5.89,5.89,0,0,0-7.43-.73l-6,4a28.09,28.09,0,0,0-3.76-1.56l-1.42-7.11a5.91,5.91,0,0,0-5.77-4.73H398.5a5.91,5.91,0,0,0-5.77,4.73l-1.42,7.11a28.77,28.77,0,0,0-3.77,1.56l-6-4a5.89,5.89,0,0,0-7.43.73l-3.3,3.3a5.92,5.92,0,0,0-.73,7.43l4,6a30.06,30.06,0,0,0-2,5.23,2.46,2.46,0,0,0,4.74,1.32,24.84,24.84,0,0,1,2.27-5.49A2.45,2.45,0,0,0,379,268l-4.84-7.25a1,1,0,0,1,.12-1.22l3.3-3.3a1,1,0,0,1,1.22-.12l7.26,4.83a2.45,2.45,0,0,0,2.57.1,24.64,24.64,0,0,1,5.49-2.27,2.45,2.45,0,0,0,1.74-1.89l1.71-8.55a1,1,0,0,1,.95-.78h4.67a1,1,0,0,1,.95.78l1.71,8.55a2.45,2.45,0,0,0,1.74,1.89,24.64,24.64,0,0,1,5.49,2.27,2.45,2.45,0,0,0,2.57-.1l7.26-4.83a1,1,0,0,1,1.22.12l3.3,3.3a1,1,0,0,1,.12,1.22L422.69,268a2.45,2.45,0,0,0-.09,2.57,25.32,25.32,0,0,1,2.27,5.49,2.46,2.46,0,0,0,1.89,1.75l8.54,1.71a1,1,0,0,1,.78.95v4.66a1,1,0,0,1-.78.95l-8.54,1.71a2.46,2.46,0,0,0-1.89,1.75A25.32,25.32,0,0,1,422.6,295a2.45,2.45,0,0,0,.09,2.57l4.84,7.25a1,1,0,0,1-.12,1.23l-3.3,3.29a1,1,0,0,1-1.22.12l-7.26-4.83a2.48,2.48,0,0,0-2.57-.1,24.67,24.67,0,0,1-5.49,2.28,2.44,2.44,0,0,0-1.74,1.88l-1.71,8.55a1,1,0,0,1-.95.78H398.5a1,1,0,0,1-.95-.78l-1.71-8.55a2.43,2.43,0,0,0-1.75-1.88,24.59,24.59,0,0,1-5.48-2.28,2.45,2.45,0,0,0-2.57.1l-7.26,4.83a1,1,0,0,1-1.22-.12l-3.3-3.29a1,1,0,0,1-.12-1.23l4.84-7.25a2.45,2.45,0,0,0,.09-2.57,24.84,24.84,0,0,1-2.27-5.49,2.46,2.46,0,0,0-1.89-1.75l-8.54-1.71a1,1,0,0,1-.78-.95v-4.66a1,1,0,0,1,.78-.95l.52-.11a2.46,2.46,0,1,0-1-4.82l-.52.11a5.89,5.89,0,0,0-4.73,5.77v4.66a5.91,5.91,0,0,0,4.73,5.78l7.11,1.42a31.67,31.67,0,0,0,1.56,3.76l-4,6a5.9,5.9,0,0,0,.73,7.42l3.3,3.3a5.9,5.9,0,0,0,7.43.74l6-4a28.77,28.77,0,0,0,3.77,1.56l1.42,7.11A5.91,5.91,0,0,0,398.5,323h4.67a5.91,5.91,0,0,0,5.77-4.74l1.42-7.11a28.09,28.09,0,0,0,3.76-1.56l6,4a5.9,5.9,0,0,0,7.43-.74l3.29-3.3a5.89,5.89,0,0,0,.74-7.42l-4-6a31.67,31.67,0,0,0,1.56-3.76l7.11-1.43a5.89,5.89,0,0,0,4.73-5.77v-4.66A5.9,5.9,0,0,0,436.27,274.69Zm-35.44-.75a8.86,8.86,0,0,1,8.86,8.85,2.46,2.46,0,1,0,4.92,0,13.78,13.78,0,1,0-13.78,13.77,13.63,13.63,0,0,0,8.42-2.87,2.46,2.46,0,1,0-3-3.89,8.74,8.74,0,0,1-5.41,1.84,8.85,8.85,0,1,1,0-17.7ZM345.1,242a15,15,0,1,1,15-15A15,15,0,0,1,345.1,242Zm0-4.91A10.07,10.07,0,1,0,335,227.05,10.08,10.08,0,0,0,345.1,237.12Z"/></g></svg>